{
    "accessors": {
        "accessor_18": {
            "bufferView": "bufferView_23",
            "byteOffset": 0,
            "byteStride": 12,
            "componentType": 5126,
            "count": 36,
            "max": [  0.5,  0.5,  0.5 ],
            "min": [ -0.5, -0.5, -0.5 ],
            "type": "VEC3"
        }
    },
    "animations": {},
    "asset": {
        "generator": "collada2gltf@027f74366341d569dea42e9a68b7104cc3892054",
        "premultipliedAlpha": true,
        "profile": {
            "api": "WebGL",
            "version": "1.0.2"
        },
        "version": "1.0"
    },
    "bufferViews": {
        "bufferView_23": {
            "buffer": "BoxWithoutIndices",
            "byteLength": 864,
            "byteOffset": 72,
            "target": 34962
        }
    },
    "buffers": {
        "BoxWithoutIndices": {
            "byteLength": 936,
            "type": "arraybuffer",
            "uri": "BoxWithoutIndices.bin"
        }
    },
    "materials": {
        "Effect-Red": {
            "name": "Red",
            "technique": "technique0",
            "values": {
                "diffuse":  [ 0.8, 0.0, 0.0, 1 ]
            }
        }
    },
    "meshes": {
        "Geometry-mesh002": {
            "name": "Mesh",
            "primitives": [
                {
                    "attributes": {
                        "POSITION": "accessor_18"
                    },
                    "material": "Effect-Red",
                    "mode": 0
                }
            ]
        }
    },
    "nodes": {
        "Geometry-mesh002Node": {
            "children": [],
            "matrix": [
                1, 0, 0, 0,
                0, 1, 0, 0,
                0, 0, 1, 0,
                0, 0, 0, 1
            ],
            "meshes": [
                "Geometry-mesh002"
            ],
            "name": "Mesh"
        },
        "node_1": {
            "children": [
                "Geometry-mesh002Node"
            ],
            "matrix": [
                1, 0,  0, 0,
                0, 0, -1, 0,
                0, 1,  0, 0,
                0, 0,  0, 1
            ],
            "name": "Y_UP_Transform"
        }
    },
    "programs": {
        "program_0": {
            "attributes": [
                "a_position"
            ],
            "fragmentShader": "BoxWithoutIndices0FS",
            "vertexShader": "BoxWithoutIndices0VS"
        }
    },
    "scene": "defaultScene",
    "scenes": {
        "defaultScene": {
            "nodes": [
                "node_1"
            ]
        }
    },
    "shaders": {
        "BoxWithoutIndices0FS": {
            "type": 35632,
            "uri": "BoxWithoutIndices0FS.glsl"
        },
        "BoxWithoutIndices0VS": {
            "type": 35633,
            "uri": "BoxWithoutIndices0VS.glsl"
        }
    },
    "skins": {},
    "techniques": {
        "technique0": {
            "attributes": {
                "a_position": "position"
            },
            "parameters": {
                "diffuse": {
                    "type": 35666
                },
                "modelViewMatrix": {
                    "semantic": "MODELVIEW",
                    "type": 35676
                },
                "position": {
                    "semantic": "POSITION",
                    "type": 35665
                },
                "projectionMatrix": {
                    "semantic": "PROJECTION",
                    "type": 35676
                }
            },
            "program": "program_0",
            "states": {
                "enable": [
                    2929
                ]
            },
            "uniforms": {
                "u_diffuse": "diffuse",
                "u_modelViewMatrix": "modelViewMatrix",
                "u_projectionMatrix": "projectionMatrix"
            }
        }
    }
}
